<svg xmlns="http://www.w3.org/2000/svg" viewBox="0 0 1200 800" role="img" aria-label="A sleeping baby beneath a moon with a gentle parent and a small songbird">
  <rect width="1200" height="800" rx="40" fill="#17264f"/>
  <circle cx="960" cy="150" r="92" fill="#fff3b0"/>
  <circle cx="1002" cy="118" r="92" fill="#17264f"/>
  <g fill="#f7dc74">
    <circle cx="150" cy="135" r="8"/><circle cx="250" cy="240" r="6"/><circle cx="410" cy="110" r="7"/>
    <circle cx="720" cy="120" r="5"/><circle cx="820" cy="280" r="8"/><circle cx="1080" cy="330" r="6"/>
  </g>
  <path d="M110 655 Q310 530 510 650 T910 640 Q1040 600 1120 650 V800 H110Z" fill="#f4c7c5"/>
  <path d="M225 640 Q315 545 430 620 L500 704 H190Z" fill="#f7e2cf" stroke="#cf8e91" stroke-width="12"/>
  <path d="M270 606 Q350 548 430 610 L450 680 H250Z" fill="#f9f4e9"/>
  <circle cx="355" cy="608" r="48" fill="#f4c5a6"/>
  <path d="M307 603 Q323 546 373 558 Q415 568 408 612 Q372 586 307 603Z" fill="#6f4b5b"/>
  <path d="M302 650 Q355 620 415 650" fill="none" stroke="#b26b7d" stroke-width="10" stroke-linecap="round"/>
  <path d="M520 642 Q590 535 690 570 Q750 592 785 665 L540 714Z" fill="#f1c98c" stroke="#b37b62" stroke-width="12"/>
  <circle cx="640" cy="580" r="42" fill="#f0b996"/>
  <path d="M598 575 Q612 522 662 530 Q698 538 700 580 Q668 558 598 575Z" fill="#6a4c4c"/>
  <path d="M650 625 Q675 644 704 625" fill="none" stroke="#9b5b61" stroke-width="9" stroke-linecap="round"/>
  <g transform="translate(790 470)">
    <ellipse cx="0" cy="55" rx="70" ry="48" fill="#8bc6d8" stroke="#467d9d" stroke-width="9"/>
    <circle cx="45" cy="20" r="32" fill="#9fd6e5" stroke="#467d9d" stroke-width="9"/>
    <path d="M72 22 l36 12 l-34 16Z" fill="#f3c36b"/>
    <circle cx="54" cy="12" r="6" fill="#17264f"/>
    <path d="M-45 38 Q-18 0 15 42 Q-15 76 -45 38Z" fill="#d8eff2"/>
  </g>
  <path d="M810 400 q20 -28 40 0 q20 -28 40 0" fill="none" stroke="#f7dc74" stroke-width="9" stroke-linecap="round"/>
  <path d="M825 365 q20 -28 40 0 q20 -28 40 0" fill="none" stroke="#f7dc74" stroke-width="7" stroke-linecap="round"/>
  <path d="M90 720 Q250 680 410 720 T760 720 T1110 720" fill="none" stroke="#f1b8bf" stroke-width="10" opacity=".65"/>
</svg>
